<?xml version="1.0" encoding="UTF-8"?>
<svg width="256px" height="256px" viewBox="0 0 256 256" version="1.1" xmlns="http://www.w3.org/2000/svg" xmlns:xlink="http://www.w3.org/1999/xlink">
    <!-- Generator: Sketch 46.2 (44496) - http://www.bohemiancoding.com/sketch -->
    <title>Shape</title>
    <desc>Created with Sketch.</desc>
    <defs></defs>
    <g id="Page-1" stroke="none" stroke-width="1" fill="none" fill-rule="evenodd">
        <g id="geomicons-wired" transform="translate(-5121.000000, -2560.000000)" fill-rule="nonzero" fill="#797C7C">
            <path d="M5354.607,2755.207 C5338.334,2742.981 5329,2724.317 5329,2704 L5329,2656 C5329,2614.587 5297,2580.427 5257,2576.401 L5257,2568 C5257,2563.582 5253.418,2560 5249,2560 C5244.582,2560 5241,2563.582 5241,2568 L5241,2576.401 C5201,2580.429 5169,2614.588 5169,2656 L5169,2704 C5169,2724.317 5159.666,2742.981 5143.391,2755.207 C5137.885,2759.342 5135.645,2766.535 5137.823,2773.065 C5140.003,2779.595 5146.116,2784 5153.003,2784 L5201.019,2784 C5208.873,2802.771 5227.414,2816 5248.999,2816 C5270.584,2816 5289.126,2802.771 5296.978,2784 L5344.999,2784 C5351.884,2784 5357.997,2779.596 5360.177,2773.065 C5362.354,2766.535 5360.114,2759.342 5354.607,2755.207 Z M5313,2704 L5185,2704 L5185,2672 L5313,2672 L5313,2704 Z M5249,2592 C5284.346,2592 5313,2620.654 5313,2656 L5313,2664 L5185,2664 L5185,2656 C5185,2620.654 5213.654,2592 5249,2592 Z M5248.998,2800 C5236.518,2800 5225.531,2793.646 5219.076,2784 L5278.92,2784 C5272.464,2793.646 5261.477,2800 5248.998,2800 Z M5153.002,2768 C5170.427,2754.911 5182.326,2734.873 5184.598,2712 L5313.403,2712 C5315.674,2734.873 5327.572,2754.911 5344.999,2768 L5153.002,2768 Z" id="Shape"></path>
        </g>
    </g>
</svg>