<?xml version="1.0" encoding="UTF-8"?>
<svg width="256px" height="256px" viewBox="0 0 256 256" version="1.1" xmlns="http://www.w3.org/2000/svg" xmlns:xlink="http://www.w3.org/1999/xlink">
    <!-- Generator: Sketch 46.2 (44496) - http://www.bohemiancoding.com/sketch -->
    <title>Shape</title>
    <desc>Created with Sketch.</desc>
    <defs></defs>
    <g id="Page-1" stroke="none" stroke-width="1" fill="none" fill-rule="evenodd">
        <g id="geomicons-wired" transform="translate(-6657.000000, -2560.000000)" fill-rule="nonzero" fill="#797C7C">
            <path d="M6785,2648 C6807.092,2648 6825,2665.908 6825,2688 C6825,2710.092 6807.092,2728 6785,2728 C6762.908,2728 6745,2710.092 6745,2688 C6745,2665.908 6762.908,2648 6785,2648 L6785,2648 Z M6785,2640 C6758.533,2640 6737,2661.533 6737,2688 C6737,2714.467 6758.533,2736 6785,2736 C6811.468,2736 6833,2714.467 6833,2688 C6833,2661.533 6811.468,2640 6785,2640 L6785,2640 Z M6785,2576 C6789.111,2576 6793.168,2576.229 6797.166,2576.66 L6805.678,2610.713 C6812.532,2612.542 6819.016,2615.264 6825.014,2618.736 L6855.121,2600.672 C6861.46,2605.769 6867.23,2611.539 6872.326,2617.878 L6854.262,2647.985 C6857.737,2653.983 6860.457,2660.467 6862.287,2667.321 L6896.34,2675.835 C6896.772,2679.831 6897,2683.889 6897,2688 C6897,2692.111 6896.771,2696.168 6896.34,2700.165 L6862.287,2708.678 C6860.46,2715.532 6857.736,2722.016 6854.264,2728.014 L6872.328,2758.121 C6867.23,2764.46 6861.461,2770.23 6855.121,2775.327 L6825.014,2757.263 C6819.016,2760.737 6812.532,2763.458 6805.678,2765.287 L6797.166,2799.34 C6793.168,2799.772 6789.111,2800 6785,2800 C6780.889,2800 6776.832,2799.771 6772.836,2799.34 L6764.322,2765.287 C6757.468,2763.457 6750.984,2760.735 6744.986,2757.263 L6714.879,2775.327 C6708.539,2770.23 6702.768,2764.459 6697.672,2758.119 L6715.736,2728.012 C6712.263,2722.015 6709.544,2715.532 6707.713,2708.678 L6673.66,2700.165 C6673.228,2696.168 6673,2692.111 6673,2688 C6673,2683.889 6673.229,2679.832 6673.66,2675.835 L6707.713,2667.322 C6709.544,2660.468 6712.264,2653.984 6715.736,2647.986 L6697.672,2617.879 C6702.77,2611.54 6708.541,2605.769 6714.879,2600.672 L6744.986,2618.736 C6750.984,2615.263 6757.468,2612.542 6764.322,2610.713 L6772.836,2576.66 C6776.832,2576.229 6780.889,2576 6785,2576 L6785,2576 Z M6785,2560 C6780.412,2560 6775.742,2560.253 6771.117,2560.753 C6764.45,2561.473 6758.939,2566.274 6757.312,2572.78 L6750.949,2598.238 C6749.149,2598.923 6747.371,2599.661 6745.613,2600.454 L6723.111,2586.953 C6720.566,2585.426 6717.718,2584.673 6714.881,2584.673 C6711.314,2584.673 6707.764,2585.864 6704.854,2588.204 C6697.628,2594.015 6691.014,2600.626 6685.204,2607.854 C6681.005,2613.077 6680.505,2620.365 6683.954,2626.112 L6697.454,2648.613 C6696.661,2650.371 6695.923,2652.15 6695.239,2653.949 L6669.78,2660.313 C6663.275,2661.94 6658.473,2667.451 6657.753,2674.118 C6657.253,2678.743 6657.001,2683.413 6657.001,2688.001 C6657.001,2692.589 6657.253,2697.259 6657.753,2701.884 C6658.474,2708.551 6663.275,2714.062 6669.78,2715.689 L6695.239,2722.053 C6695.923,2723.851 6696.661,2725.631 6697.454,2727.387 L6683.954,2749.888 C6680.505,2755.635 6681.005,2762.921 6685.202,2768.143 C6691.013,2775.372 6697.626,2781.985 6704.854,2787.797 C6707.764,2790.136 6711.315,2791.327 6714.881,2791.327 C6717.719,2791.327 6720.567,2790.574 6723.111,2789.047 L6745.611,2775.546 C6747.369,2776.339 6749.148,2777.077 6750.947,2777.762 L6757.312,2803.221 C6758.939,2809.726 6764.45,2814.528 6771.117,2815.247 C6775.74,2815.747 6780.412,2816 6785,2816 C6789.588,2816 6794.259,2815.747 6798.883,2815.247 C6805.551,2814.527 6811.062,2809.726 6812.688,2803.22 L6819.053,2777.762 C6820.852,2777.078 6822.631,2776.34 6824.389,2775.547 L6846.89,2789.047 C6849.436,2790.574 6852.284,2791.327 6855.119,2791.327 C6858.687,2791.327 6862.237,2790.136 6865.146,2787.796 C6872.375,2781.985 6878.986,2775.374 6884.796,2768.147 C6888.995,2762.923 6889.495,2755.636 6886.046,2749.889 L6872.546,2727.389 C6873.339,2725.631 6874.077,2723.852 6874.761,2722.052 L6900.22,2715.688 C6906.726,2714.062 6911.527,2708.55 6912.247,2701.883 C6912.747,2697.258 6912.999,2692.588 6912.999,2688 C6912.999,2683.411 6912.747,2678.74 6912.247,2674.117 C6911.526,2667.45 6906.726,2661.94 6900.22,2660.313 L6874.761,2653.948 C6874.077,2652.148 6873.338,2650.369 6872.546,2648.611 L6886.046,2626.111 C6889.493,2620.364 6888.995,2613.077 6884.796,2607.854 C6878.988,2600.629 6872.378,2594.018 6865.148,2588.204 C6862.238,2585.864 6858.687,2584.673 6855.119,2584.673 C6852.283,2584.673 6849.435,2585.426 6846.89,2586.953 L6824.387,2600.454 C6822.63,2599.661 6820.851,2598.923 6819.052,2598.239 L6812.687,2572.781 C6811.061,2566.275 6805.55,2561.474 6798.882,2560.754 C6794.259,2560.253 6789.588,2560 6785,2560 L6785,2560 Z" id="Shape"></path>
        </g>
    </g>
</svg>