<?xml version="1.0" encoding="UTF-8"?>
<svg width="33px" height="33px" viewBox="0 0 33 33" version="1.1" xmlns="http://www.w3.org/2000/svg" xmlns:xlink="http://www.w3.org/1999/xlink">
    <!-- Generator: Sketch 46.2 (44496) - http://www.bohemiancoding.com/sketch -->
    <title>Fill 3</title>
    <desc>Created with Sketch.</desc>
    <defs></defs>
    <g id="Page-1" stroke="none" stroke-width="1" fill="none" fill-rule="evenodd">
        <g id="GitHub-Mark" transform="translate(-125.000000, -77.000000)" fill="#161514">
            <path d="M141.498481,77 C132.388256,77 125,84.3872433 125,93.5005065 C125,100.790509 129.727309,106.974401 136.283956,109.156236 C137.109488,109.308174 137.410326,108.798674 137.410326,108.361092 C137.410326,107.970103 137.396145,106.931858 137.388041,105.555296 C132.79849,106.552012 131.830136,103.343074 131.830136,103.343074 C131.07956,101.436754 129.997759,100.92928 129.997759,100.92928 C128.499647,99.9062279 130.111207,99.9264864 130.111207,99.9264864 C131.767335,100.042972 132.638448,101.627183 132.638448,101.627183 C134.110224,104.148347 136.500721,103.420056 137.440713,102.997667 C137.590626,101.932073 138.017066,101.204794 138.488075,100.792535 C134.824335,100.376224 130.972191,98.9601584 130.972191,92.6374965 C130.972191,90.8365205 131.615396,89.3627183 132.670862,88.2100126 C132.500691,87.7926885 131.934467,86.1142761 132.832929,83.843304 C132.832929,83.843304 134.217594,83.3996439 137.369809,85.5348844 C138.685595,85.1682065 140.097609,84.9858805 141.500506,84.97879 C142.902391,84.9858805 144.313392,85.1682065 145.631204,85.5348844 C148.781393,83.3996439 150.164032,83.843304 150.164032,83.843304 C151.06452,86.1142761 150.498296,87.7926885 150.329138,88.2100126 C151.386629,89.3627183 152.024771,90.8365205 152.024771,92.6374965 C152.024771,98.9763651 148.166549,100.371159 144.491666,100.779367 C145.083213,101.288867 145.610946,102.295712 145.610946,103.835354 C145.610946,106.040486 145.590687,107.820191 145.590687,108.361092 C145.590687,108.802726 145.888486,109.316277 146.72516,109.155223 C153.276743,106.968323 158,100.788483 158,93.5005065 C158,84.3872433 150.611744,77 141.498481,77" id="Fill-3"></path>
        </g>
    </g>
</svg>