<?xml version="1.0" encoding="UTF-8"?>
<svg width="256px" height="256px" viewBox="0 0 256 256" version="1.1" xmlns="http://www.w3.org/2000/svg" xmlns:xlink="http://www.w3.org/1999/xlink">
    <!-- Generator: Sketch 47.1 (45422) - http://www.bohemiancoding.com/sketch -->
    <title>Shape</title>
    <desc>Created with Sketch.</desc>
    <defs></defs>
    <g id="Page-1" stroke="none" stroke-width="1" fill="none" fill-rule="evenodd">
        <g id="geomicons-wired" transform="translate(-6145.000000, -4100.000000)" fill-rule="nonzero" fill="#797C7C">
            <path d="M6345.875,4193.312 C6350.326,4190.345 6353,4185.349 6353,4180 L6353,4145.859 C6357.783,4143.093 6361,4137.921 6361,4132 L6361,4116 C6361,4107.164 6353.836,4100 6345,4100 L6201,4100 C6192.164,4100 6185,4107.164 6185,4116 L6185,4132 C6185,4137.922 6188.217,4143.094 6193,4145.859 L6193,4180 C6193,4185.35 6195.674,4190.346 6200.125,4193.312 L6241,4220.562 L6241,4235.437 L6200.125,4262.687 C6195.674,4265.654 6193,4270.65 6193,4275.999 L6193,4310.14 C6188.217,4312.906 6185,4318.078 6185,4323.999 L6185,4339.999 C6185,4348.835 6192.164,4355.999 6201,4355.999 L6345,4355.999 C6353.836,4355.999 6361,4348.835 6361,4339.999 L6361,4323.999 C6361,4318.077 6357.783,4312.905 6353,4310.14 L6353,4276 C6353,4270.65 6350.326,4265.654 6345.875,4262.688 L6305,4235.439 L6305,4220.562 L6345.875,4193.312 Z M6201,4116 L6345,4116 L6345,4132 L6337,4132 L6209,4132 L6201,4132 L6201,4116 Z M6345,4340 L6201,4340 L6201,4324 L6201.002,4324 L6345,4324 L6345,4340 Z M6321,4316 L6225,4316 L6225,4300 L6273,4284 L6321,4300 L6321,4316 Z M6337,4276 L6337,4316 L6329,4316 L6329,4300 C6329,4296.557 6326.797,4293.5 6323.529,4292.41 L6275.529,4276.41 C6274.709,4276.137 6273.853,4276 6273,4276 C6272.145,4276 6271.291,4276.137 6270.469,4276.41 L6222.469,4292.41 C6219.203,4293.5 6217,4296.556 6217,4300 L6217,4316 L6209,4316 L6209,4276 L6257,4244 L6257,4212 L6209,4180 L6209,4140 L6337,4140 L6337,4180 L6289,4212 L6289,4244.002 L6337,4276 Z M6320.709,4177.865 C6319.75,4174.398 6316.596,4172 6313,4172 L6233,4172 C6229.402,4172 6226.25,4174.398 6225.289,4177.865 C6224.33,4181.33 6225.801,4185.01 6228.885,4186.859 L6268.885,4210.859 C6268.92,4210.881 6268.963,4210.896 6269,4210.918 L6269,4244 C6269,4246.209 6270.791,4248 6273,4248 C6275.209,4248 6277,4246.209 6277,4244 L6277,4210.918 C6277.035,4210.897 6277.078,4210.882 6277.115,4210.859 L6317.115,4186.859 C6320.199,4185.01 6321.668,4181.33 6320.709,4177.865 Z M6273,4204 L6233,4180 L6313,4180 L6273,4204 Z" id="Shape"></path>
        </g>
    </g>
</svg>