<?xml version="1.0" encoding="UTF-8"?>
<svg width="256px" height="256px" viewBox="0 0 256 256" version="1.1" xmlns="http://www.w3.org/2000/svg" xmlns:xlink="http://www.w3.org/1999/xlink">
    <!-- Generator: Sketch 46.2 (44496) - http://www.bohemiancoding.com/sketch -->
    <title>Shape</title>
    <desc>Created with Sketch.</desc>
    <defs></defs>
    <g id="Page-1" stroke="none" stroke-width="1" fill="none" fill-rule="evenodd">
        <g id="geomicons-wired" transform="translate(-4609.000000, -3584.000000)" fill-rule="nonzero" fill="#797C7C">
            <path d="M4833,3584 L4641,3584 C4623.355,3584 4609,3598.355 4609,3616 L4609,3808 C4609,3825.645 4623.355,3840 4641,3840 L4833,3840 C4850.645,3840 4865,3825.645 4865,3808 L4865,3616 C4865,3598.355 4850.645,3584 4833,3584 Z M4657,3600 L4817,3600 L4817,3720 L4657,3720 L4657,3600 Z M4793,3824 L4681,3824 L4681,3752 L4793,3752 L4793,3824 Z M4849,3808 C4849,3816.8 4841.799,3824 4833,3824 L4801,3824 L4801,3752 C4801,3747.582 4797.418,3744 4793,3744 L4681,3744 C4676.582,3744 4673,3747.582 4673,3752 L4673,3824 L4641,3824 C4632.199,3824 4625,3816.8 4625,3808 L4625,3616 C4625,3607.2 4632.199,3600 4641,3600 L4649,3600 L4649,3720 C4649,3724.418 4652.582,3728 4657,3728 L4817,3728 C4821.418,3728 4825,3724.418 4825,3720 L4825,3600 L4833,3600 C4841.799,3600 4849,3607.2 4849,3616 L4849,3808 Z M4697,3816 L4721,3816 C4725.418,3816 4729,3812.418 4729,3808 L4729,3768 C4729,3763.582 4725.418,3760 4721,3760 L4697,3760 C4692.582,3760 4689,3763.582 4689,3768 L4689,3808 C4689,3812.418 4692.582,3816 4697,3816 Z M4697,3768 L4721,3768 L4721,3808 L4697,3808 L4697,3768 Z" id="Shape"></path>
        </g>
    </g>
</svg>